<!-- Generated by IcoMoon.io -->
<svg version="1.1" xmlns="http://www.w3.org/2000/svg" width="15" height="15" viewBox="0 0 15 15">
<title>arrow-back-outline</title>
<path d="M11.977 12.217c-1.026-1.563-2.293-2.053-3.852-2.178v0.898c0 0.334-0.13 0.648-0.366 0.884-0.472 0.472-1.298 0.469-1.764 0.003l-3.933-3.879c-0.119-0.118-0.186-0.277-0.186-0.446s0.067-0.327 0.186-0.445l3.93-3.877c0.471-0.472 1.296-0.473 1.768 0.001 0.236 0.236 0.366 0.55 0.366 0.884v1.065c2.887 0.583 5 3.123 5 6.123v0.625c0 0.276-0.181 0.52-0.446 0.599-0.059 0.017-0.119 0.026-0.179 0.026-0.207 0-0.404-0.103-0.522-0.282zM7.514 8.757c1.379 0.035 2.899 0.246 4.224 1.326-0.48-2.010-2.173-3.564-4.308-3.8-0.315-0.035-0.555-0.033-0.555-0.033v-2.186l-3.485 3.435 3.485 3.438v-2.187c0 0 0.461 0.006 0.639 0.007z"></path>
</svg>
