<!-- Generated by IcoMoon.io -->
<svg version="1.1" xmlns="http://www.w3.org/2000/svg" width="15" height="15" viewBox="0 0 15 15">
<title>bell-o</title>
<path d="M7.634 14.196c0-0.075-0.059-0.134-0.134-0.134-0.661 0-1.205-0.544-1.205-1.205 0-0.075-0.059-0.134-0.134-0.134s-0.134 0.059-0.134 0.134c0 0.812 0.661 1.473 1.473 1.473 0.075 0 0.134-0.059 0.134-0.134zM2.059 11.786h10.882c-1.498-1.691-2.227-3.984-2.227-6.964 0-1.080-1.021-2.679-3.214-2.679s-3.214 1.599-3.214 2.679c0 2.98-0.728 5.273-2.227 6.964zM14.464 11.786c0 0.586-0.485 1.071-1.071 1.071h-3.75c0 1.18-0.963 2.143-2.143 2.143s-2.143-0.963-2.143-2.143h-3.75c-0.586 0-1.071-0.485-1.071-1.071 1.239-1.046 2.679-2.921 2.679-6.964 0-1.607 1.331-3.365 3.549-3.691-0.042-0.1-0.067-0.209-0.067-0.326 0-0.444 0.36-0.804 0.804-0.804s0.804 0.36 0.804 0.804c0 0.117-0.025 0.226-0.067 0.326 2.218 0.326 3.549 2.084 3.549 3.691 0 4.043 1.44 5.918 2.679 6.964z"></path>
</svg>
