<!-- Generated by IcoMoon.io -->
<svg version="1.1" xmlns="http://www.w3.org/2000/svg" width="15" height="15" viewBox="0 0 15 15">
<title>envelope-o</title>
<path d="M13.929 12.589v-6.429c-0.176 0.201-0.368 0.385-0.578 0.552-1.197 0.921-2.402 1.858-3.566 2.829-0.628 0.527-1.406 1.172-2.277 1.172h-0.017c-0.871 0-1.649-0.645-2.277-1.172-1.164-0.971-2.369-1.908-3.566-2.829-0.209-0.167-0.402-0.352-0.578-0.552v6.429c0 0.142 0.126 0.268 0.268 0.268h12.321c0.142 0 0.268-0.126 0.268-0.268zM13.929 3.792c0-0.209 0.050-0.578-0.268-0.578h-12.321c-0.142 0-0.268 0.126-0.268 0.268 0 0.954 0.477 1.783 1.23 2.377 1.122 0.879 2.243 1.766 3.357 2.653 0.444 0.36 1.247 1.13 1.833 1.13h0.017c0.586 0 1.39-0.77 1.833-1.13 1.113-0.887 2.235-1.775 3.357-2.653 0.544-0.427 1.23-1.356 1.23-2.068zM15 3.482v9.107c0 0.737-0.603 1.339-1.339 1.339h-12.321c-0.737 0-1.339-0.603-1.339-1.339v-9.107c0-0.737 0.603-1.339 1.339-1.339h12.321c0.737 0 1.339 0.603 1.339 1.339z"></path>
</svg>
