<!-- Generated by IcoMoon.io -->
<svg version="1.1" xmlns="http://www.w3.org/2000/svg" width="20" height="20" viewBox="0 0 15 15">
<title>heart-o</title>
<path fill="#54667a" d="M13.929 4.989c0-2.352-1.59-2.846-2.93-2.846-1.247 0-2.653 1.348-3.089 1.867-0.201 0.243-0.619 0.243-0.82 0-0.435-0.519-1.842-1.867-3.089-1.867-1.339 0-2.93 0.494-2.93 2.846 0 1.532 1.549 2.955 1.565 2.972l4.863 4.688 4.855-4.679c0.025-0.025 1.574-1.448 1.574-2.98zM15 4.989c0 2.009-1.842 3.691-1.917 3.767l-5.215 5.022c-0.1 0.1-0.234 0.151-0.368 0.151s-0.268-0.050-0.368-0.151l-5.223-5.039c-0.067-0.059-1.908-1.741-1.908-3.75 0-2.453 1.498-3.917 4.001-3.917 1.465 0 2.838 1.155 3.499 1.808 0.661-0.653 2.034-1.808 3.499-1.808 2.503 0 4.001 1.465 4.001 3.917z"></path>
</svg>
