<!-- Generated by IcoMoon.io -->
<svg version="1.1" xmlns="http://www.w3.org/2000/svg" width="20" height="20" viewBox="0 0 13 15">
<title>user-o</title>
<path fill="#54667a" d="M10.053 6.563c1.18 0.343 2.804 1.507 2.804 5.315 0 1.724-1.281 3.122-2.854 3.122h-7.148c-1.574 0-2.854-1.398-2.854-3.122 0-3.809 1.624-4.972 2.804-5.315-0.419-0.661-0.661-1.44-0.661-2.277 0-2.36 1.925-4.286 4.286-4.286s4.286 1.925 4.286 4.286c0 0.837-0.243 1.616-0.661 2.277zM6.429 1.071c-1.775 0-3.214 1.44-3.214 3.214s1.44 3.214 3.214 3.214 3.214-1.44 3.214-3.214-1.44-3.214-3.214-3.214zM10.003 13.929c0.979 0 1.783-0.912 1.783-2.051 0-2.637-0.887-4.286-2.545-4.369-0.753 0.661-1.733 1.063-2.813 1.063s-2.059-0.402-2.813-1.063c-1.657 0.084-2.545 1.733-2.545 4.369 0 1.138 0.804 2.051 1.783 2.051h7.148z"></path>
</svg>
