<!-- Generated by IcoMoon.io -->
<svg version="1.1" xmlns="http://www.w3.org/2000/svg" width="13" height="15" viewBox="0 0 13 15">
<title>dribbble</title>
<path d="M8.571 12.556c-0.084-0.485-0.402-2.16-1.172-4.169-0.008 0-0.025 0.008-0.033 0.008 0 0-3.256 1.138-4.311 3.432-0.050-0.042-0.126-0.092-0.126-0.092 0.954 0.778 2.168 1.256 3.499 1.256 0.762 0 1.482-0.159 2.143-0.435zM7.023 7.475c-0.134-0.31-0.285-0.619-0.444-0.929-2.829 0.845-5.541 0.778-5.633 0.778-0.008 0.059-0.008 0.117-0.008 0.176 0 1.406 0.536 2.695 1.406 3.666v0c1.498-2.67 4.461-3.624 4.461-3.624 0.075-0.025 0.151-0.042 0.218-0.067zM6.127 5.7c-0.954-1.691-1.967-3.064-2.042-3.164-1.532 0.72-2.67 2.134-3.030 3.834 0.142 0 2.436 0.025 5.073-0.67zM11.853 8.371c-0.117-0.033-1.649-0.519-3.424-0.243 0.72 1.984 1.013 3.599 1.071 3.926 1.23-0.829 2.101-2.151 2.352-3.683zM5.114 2.168c-0.008 0-0.008 0-0.017 0.008 0 0 0.008-0.008 0.017-0.008zM10.053 3.382c-0.963-0.854-2.235-1.373-3.624-1.373-0.444 0-0.879 0.059-1.297 0.159 0.084 0.109 1.122 1.473 2.059 3.198 2.068-0.77 2.846-1.959 2.863-1.984zM11.92 7.441c-0.017-1.297-0.477-2.494-1.247-3.432-0.017 0.017-0.896 1.289-3.064 2.176 0.126 0.259 0.251 0.527 0.368 0.795 0.042 0.092 0.075 0.193 0.117 0.285 1.892-0.243 3.758 0.167 3.825 0.176zM12.857 7.5c0 3.549-2.879 6.429-6.429 6.429s-6.429-2.879-6.429-6.429 2.879-6.429 6.429-6.429 6.429 2.879 6.429 6.429z"></path>
</svg>
