<!-- Generated by IcoMoon.io -->
<svg version="1.1" xmlns="http://www.w3.org/2000/svg" width="13" height="15" viewBox="0 0 13 15">
<title>linkedin</title>
<path d="M2.921 5.232v8.295h-2.762v-8.295h2.762zM3.097 2.67c0.008 0.795-0.594 1.431-1.557 1.431v0h-0.017c-0.929 0-1.523-0.636-1.523-1.431 0-0.812 0.619-1.431 1.557-1.431 0.946 0 1.532 0.619 1.54 1.431zM12.857 8.772v4.754h-2.754v-4.436c0-1.113-0.402-1.875-1.398-1.875-0.762 0-1.214 0.511-1.415 1.004-0.067 0.184-0.092 0.427-0.092 0.678v4.629h-2.754c0.033-7.517 0-8.295 0-8.295h2.754v1.205h-0.017c0.36-0.569 1.013-1.398 2.503-1.398 1.816 0 3.172 1.189 3.172 3.733z"></path>
</svg>
