<!-- Generated by IcoMoon.io -->
<svg version="1.1" xmlns="http://www.w3.org/2000/svg" width="13" height="15" viewBox="0 0 13 15">
<title>pinterest</title>
<path d="M12.857 7.5c0 3.549-2.879 6.429-6.429 6.429-0.636 0-1.239-0.092-1.825-0.268 0.243-0.385 0.519-0.879 0.653-1.373 0 0 0.075-0.285 0.452-1.766 0.218 0.427 0.871 0.804 1.565 0.804 2.068 0 3.474-1.883 3.474-4.411 0-1.9-1.616-3.683-4.076-3.683-3.047 0-4.587 2.193-4.587 4.018 0 1.105 0.419 2.093 1.314 2.461 0.142 0.059 0.276 0 0.318-0.167 0.033-0.109 0.1-0.393 0.134-0.511 0.042-0.167 0.025-0.218-0.092-0.36-0.259-0.31-0.427-0.703-0.427-1.264 0-1.624 1.214-3.080 3.164-3.080 1.724 0 2.679 1.055 2.679 2.469 0 1.85-0.82 3.415-2.042 3.415-0.67 0-1.172-0.552-1.013-1.239 0.193-0.812 0.569-1.691 0.569-2.277 0-0.527-0.285-0.971-0.871-0.971-0.686 0-1.239 0.711-1.239 1.666 0 0 0 0.611 0.209 1.021-0.703 2.98-0.829 3.499-0.829 3.499-0.117 0.485-0.126 1.030-0.109 1.482-2.268-0.996-3.85-3.256-3.85-5.893 0-3.549 2.879-6.429 6.429-6.429s6.429 2.879 6.429 6.429z"></path>
</svg>
