<!-- Generated by IcoMoon.io -->
<svg version="1.1" xmlns="http://www.w3.org/2000/svg" width="14" height="15" viewBox="0 0 14 15">
<title>twitter</title>
<path d="M13.56 3.415c-0.368 0.536-0.829 1.013-1.356 1.398 0.008 0.117 0.008 0.234 0.008 0.352 0 3.574-2.72 7.693-7.693 7.693-1.532 0-2.955-0.444-4.152-1.214 0.218 0.025 0.427 0.033 0.653 0.033 1.264 0 2.427-0.427 3.357-1.155-1.189-0.025-2.185-0.804-2.528-1.875 0.167 0.025 0.335 0.042 0.511 0.042 0.243 0 0.485-0.033 0.711-0.092-1.239-0.251-2.168-1.339-2.168-2.653v-0.033c0.36 0.201 0.778 0.326 1.222 0.343-0.728-0.485-1.205-1.314-1.205-2.252 0-0.502 0.134-0.963 0.368-1.364 1.331 1.641 3.331 2.712 5.575 2.829-0.042-0.201-0.067-0.41-0.067-0.619 0-1.49 1.205-2.704 2.704-2.704 0.778 0 1.482 0.326 1.975 0.854 0.611-0.117 1.197-0.343 1.716-0.653-0.201 0.628-0.628 1.155-1.189 1.49 0.544-0.059 1.071-0.209 1.557-0.419z"></path>
</svg>
