<?xml version="1.0" encoding="utf-8"?>
<!-- Generated by IcoMoon.io -->
<!DOCTYPE svg PUBLIC "-//W3C//DTD SVG 1.1//EN" "http://www.w3.org/Graphics/SVG/1.1/DTD/svg11.dtd">
<svg width="20" height="20" xmlns="http://www.w3.org/2000/svg" xmlns:svg="http://www.w3.org/2000/svg">
 <g>
  <title>Layer 1</title>
  <path fill="#7347c1" d="m9.5,19c-0.084,0 -0.167,-0.021 -0.243,-0.063c-0.094,-0.052 -2.326,-1.301 -4.592,-3.347c-1.341,-1.21 -2.411,-2.448 -3.183,-3.68c-0.984,-1.571 -1.482,-3.139 -1.482,-4.66c0,-2.895 2.355,-5.25 5.25,-5.25c0.98,0 2.021,0.367 2.931,1.034c0.532,0.39 0.985,0.86 1.319,1.359c0.334,-0.499 0.787,-0.969 1.319,-1.359c0.91,-0.667 1.951,-1.034 2.931,-1.034c2.895,0 5.25,2.355 5.25,5.25c0,1.521 -0.499,3.089 -1.482,4.66c-0.771,1.232 -1.842,2.47 -3.182,3.68c-2.266,2.046 -4.498,3.295 -4.592,3.347c-0.076,0.042 -0.159,0.063 -0.243,0.063l-0.001,0zm-4.25,-16c-2.343,0 -4.25,1.907 -4.25,4.25c0,3.04 2.35,5.802 4.321,7.585c1.76,1.592 3.544,2.708 4.179,3.087c0.635,-0.379 2.419,-1.495 4.179,-3.087c1.971,-1.782 4.321,-4.545 4.321,-7.585c0,-2.343 -1.907,-4.25 -4.25,-4.25c-1.703,0 -3.357,1.401 -3.776,2.658c-0.068,0.204 -0.259,0.342 -0.474,0.342s-0.406,-0.138 -0.474,-0.342c-0.419,-1.257 -2.073,-2.658 -3.776,-2.658z" id="svg_1"/>
  <g id="svg_4"/>
  <ellipse fill="#000000" stroke-width="0" stroke-dasharray="null" stroke-linejoin="null" stroke-linecap="null" cx="50.42105" cy="6.52632" id="svg_8" rx="0.52632" ry="0.42105"/>
 </g>
</svg>
